<?xml version="1.0" encoding="utf-8"?>
<!-- Generator: Adobe Illustrator 17.1.0, SVG Export Plug-In . SVG Version: 6.00 Build 0)  -->
<!DOCTYPE svg PUBLIC "-//W3C//DTD SVG 1.1//EN" "http://www.w3.org/Graphics/SVG/1.1/DTD/svg11.dtd">
<svg version="1.1" id="Layer_1" xmlns="http://www.w3.org/2000/svg" xmlns:xlink="http://www.w3.org/1999/xlink" x="0px" y="0px"
	 viewBox="0 0 620 203.1" enable-background="new 0 0 620 203.1" xml:space="preserve">
<path fill="#F1F2F2" d="M607.6,173.7H369.1c-2.3,0-4.2-1.9-4.2-4.2s1.9-4.2,4.2-4.2h238.4c2.3,0,4.2,1.9,4.2,4.2
	S609.9,173.7,607.6,173.7z"/>
<path fill="#F1F2F2" d="M250.9,173.7H12.4c-2.3,0-4.2-1.9-4.2-4.2s1.9-4.2,4.2-4.2h238.4c2.3,0,4.2,1.9,4.2,4.2
	S253.2,173.7,250.9,173.7z"/>
<text transform="matrix(1 0 0 1 190.6544 115.4552)" fill="#F1F2F2" font-family="'Helvetica-ExtraCompressed'" font-size="105.6633" letter-spacing="9">ABOUT</text>
<g>
	<path fill="#F1F2F2" d="M312.8,138.1l-4.2,15.3c-0.2,0.6,0,1.2,0.4,1.6l1.3,1.3l-29,28.5c-1.6,1.5-1.6,4,0,5.6l3.1,3
		c1.6,1.5,4.1,1.5,5.6,0l29-28.5l1.3,1.3c0.4,0.4,1,0.6,1.6,0.4l15.6-4.1c0.6-0.2,1-0.6,1.2-1.2l4.2-15.3c0.2-0.6,0-1.2-0.4-1.6l0,0
		c-0.9-0.9-2.4-0.5-2.8,0.7l-1.4,5.1c-0.2,0.6-0.6,1-1.2,1.2l-7.3,1.9c-0.6,0.2-1.2,0-1.6-0.4l-5.4-5.3c-0.4-0.4-0.6-1-0.4-1.6
		l2-7.2c0.2-0.6,0.6-1,1.2-1.2l5.2-1.4c1.2-0.3,1.6-1.8,0.7-2.7l-0.3-0.3c-0.4-0.4-1-0.6-1.6-0.4l-15.6,4.1
		C313.4,137.1,312.9,137.5,312.8,138.1z M286.3,184.4c0.7-0.7,1.8-0.7,2.5,0l1.7,1.7c0.7,0.7,0.7,1.8,0,2.5l-1.7,1.7
		c-0.7,0.7-1.8,0.7-2.5,0l-1.7-1.7c-0.7-0.7-0.7-1.8,0-2.5L286.3,184.4z"/>
	<path fill="#F1F2F2" d="M294.4,164.4l28.8,29.8c1.1,1.2,3,1.2,4.1,0l6.9-7.2c1.1-1.2,1.1-3.1,0-4.3l-28.6-29.6
		c-1-1.1-2.7-1.1-3.7,0l-1.5,1.5c-0.3,0.3-0.7,0.3-0.9,0l-8-8.3c-0.2-0.2-0.2-0.5,0-0.8l0,0c0.2-0.2,0.2-0.4,0.1-0.6l-1.8-3.5
		l0.1-0.1l-0.2-0.2l-0.1-0.1l0,0.1l-12.2-8.9c-0.3-0.2-0.6-0.2-0.8,0.1l-2,2.1c-0.2,0.2-0.3,0.6-0.1,0.9l8.6,12.6l0,0.1l0.1,0.1
		l0.1,0.2l0.1-0.1l3.3,1.8c0.3,0.1,0.6,0.1,0.8-0.1l0,0c0.3-0.3,0.7-0.3,0.9,0l7.9,8.2c0.3,0.3,0.3,0.7,0,1l-1.8,1.8
		C293.4,161.9,293.4,163.5,294.4,164.4z M301.8,157.9c-0.5-0.5-0.7-1.1-0.4-1.3c0.2-0.2,0.8-0.1,1.3,0.4l26.8,27.7
		c0.5,0.5,0.7,1.1,0.4,1.3c-0.2,0.2-0.8,0.1-1.3-0.4L301.8,157.9z M300,159.8c-0.5-0.5-0.7-1.1-0.4-1.3c0.2-0.2,0.8-0.1,1.3,0.4
		l26.8,27.7c0.5,0.5,0.7,1.1,0.4,1.3c-0.2,0.2-0.8,0.1-1.3-0.4L300,159.8z M298.2,161.6c-0.5-0.5-0.7-1.1-0.4-1.3
		c0.2-0.2,0.8-0.1,1.3,0.4l26.8,27.7c0.5,0.5,0.7,1.1,0.4,1.3c-0.2,0.2-0.8,0.1-1.3-0.4L298.2,161.6z"/>
</g>
</svg>
