<?xml version="1.0" encoding="utf-8"?>
<!-- Generator: Adobe Illustrator 17.1.0, SVG Export Plug-In . SVG Version: 6.00 Build 0)  -->
<!DOCTYPE svg PUBLIC "-//W3C//DTD SVG 1.1//EN" "http://www.w3.org/Graphics/SVG/1.1/DTD/svg11.dtd">
<svg version="1.1" id="Layer_1" xmlns="http://www.w3.org/2000/svg" xmlns:xlink="http://www.w3.org/1999/xlink" x="0px" y="0px"
	 viewBox="0 0 620 203.1" enable-background="new 0 0 620 203.1" xml:space="preserve">
<text transform="matrix(1 0 0 1 140.8349 117.7404)" fill="#F1F2F2" font-family="'Helvetica-ExtraCompressed'" font-size="105.6633" letter-spacing="9">CONTACT</text>
<g>
	<line fill="#F1F2F2" x1="369.1" y1="172.1" x2="607.6" y2="172.1"/>
	<path fill="#F1F2F2" d="M607.6,176.3H369.1c-2.3,0-4.2-1.9-4.2-4.2c0-2.3,1.9-4.2,4.2-4.2h238.4c2.3,0,4.2,1.9,4.2,4.2
		C611.8,174.5,609.9,176.3,607.6,176.3z"/>
</g>
<g>
	<line fill="#F1F2F2" x1="12.4" y1="172.1" x2="250.9" y2="172.1"/>
	<path fill="#F1F2F2" d="M250.9,176.3H12.4c-2.3,0-4.2-1.9-4.2-4.2c0-2.3,1.9-4.2,4.2-4.2h238.4c2.3,0,4.2,1.9,4.2,4.2
		C255.1,174.5,253.2,176.3,250.9,176.3z"/>
</g>
<path fill="#F1F2F2" d="M343.8,153.4c0-3-1.3-5.7-3.2-7.5c-3.1-4.1-24-7.3-29-7.3h-0.5c-4.5,0-22.5,2.7-27.9,6.3
	c-2.6,1.5-4.4,4.7-4.4,8.4c0,5.2,3.6,9.4,8.1,9.4h5.1c-3.5,2.1-5.8,5.9-5.8,10.2v6.5c0,6.6,5.4,12,12,12h26.2c6.6,0,12-5.4,12-12
	v-6.5c0-4.3-2.3-8-5.7-10.2h5.1C340.2,162.7,343.8,158.5,343.8,153.4z M311.2,187.3c-6.2,0-11.3-5.1-11.3-11.3
	c0-6.2,5.1-11.3,11.3-11.3c6.2,0,11.3,5.1,11.3,11.3C322.5,182.3,317.5,187.3,311.2,187.3z M324.3,160.9h-26.2c-0.5,0-1,0-1.5,0.1
	c1.7-1.3,2.9-3.4,3.4-5.8h22.6c0.4,2.4,1.6,4.4,3.3,5.8C325.4,161,324.8,160.9,324.3,160.9z"/>
<circle fill="#F1F2F2" cx="311.3" cy="176.2" r="8.2"/>
</svg>
