<?xml version="1.0" encoding="utf-8"?>
<!-- Generator: Adobe Illustrator 17.1.0, SVG Export Plug-In . SVG Version: 6.00 Build 0)  -->
<!DOCTYPE svg PUBLIC "-//W3C//DTD SVG 1.1//EN" "http://www.w3.org/Graphics/SVG/1.1/DTD/svg11.dtd">
<svg version="1.1" id="Layer_1" xmlns="http://www.w3.org/2000/svg" xmlns:xlink="http://www.w3.org/1999/xlink" x="0px" y="0px"
	 viewBox="0 0 620 203.1" enable-background="new 0 0 620 203.1" xml:space="preserve">
<g>
	<line fill="#F1F2F2" x1="369.1" y1="166.6" x2="607.6" y2="166.6"/>
	<path fill="#F1F2F2" d="M607.6,170.8H369.1c-2.3,0-4.2-1.9-4.2-4.2c0-2.3,1.9-4.2,4.2-4.2h238.4c2.3,0,4.2,1.9,4.2,4.2
		C611.8,168.9,609.9,170.8,607.6,170.8z"/>
</g>
<g>
	<line fill="#F1F2F2" x1="12.4" y1="166.6" x2="250.9" y2="166.6"/>
	<path fill="#F1F2F2" d="M250.9,170.8H12.4c-2.3,0-4.2-1.9-4.2-4.2c0-2.3,1.9-4.2,4.2-4.2h238.4c2.3,0,4.2,1.9,4.2,4.2
		C255.1,168.9,253.2,170.8,250.9,170.8z"/>
</g>
<g>
	<path fill="#F1F2F2" d="M314.7,187.4v1.4c0,1.9-2.1,3.4-4.7,3.4c-2.6,0-4.7-1.5-4.7-3.4v-1.4c-13,0.1-23,0.6-23,1.2v4
		c0,0.7,12.4,1.2,27.7,1.2s27.7-0.6,27.7-1.2v-4C337.7,188,327.8,187.5,314.7,187.4z"/>
	<path fill="#F1F2F2" d="M312.5,187.3v-5.9c0-0.5-1-1.2-2.5-1.2c-1.5,0-2.5,0.7-2.5,1.2v5.9c0.8,0,1.7,0,2.5,0
		S311.7,187.3,312.5,187.3z"/>
	<path fill="#F1F2F2" d="M310,190c1.5,0,2.5-0.7,2.5-1.2v-1.4c-0.8,0-1.7,0-2.5,0s-1.7,0-2.5,0v1.4C307.5,189.2,308.5,190,310,190z"
		/>
	<g>
		<path fill="#F1F2F2" d="M333.3,184.5h-46.7c-3.9,0-7.1-3.2-7.1-7.1V151c0-3.9,3.2-7.1,7.1-7.1h46.7c3.9,0,7.1,3.2,7.1,7.1v26.4
			C340.4,181.3,337.2,184.5,333.3,184.5z M286.7,149.1c-1,0-1.9,0.9-1.9,1.9v26.4c0,1,0.9,1.9,1.9,1.9h46.7c1,0,1.9-0.9,1.9-1.9V151
			c0-1-0.9-1.9-1.9-1.9H286.7z"/>
	</g>
</g>
<text transform="matrix(1 0 0 1 201.0621 114.8847)" fill="#F1F2F2" font-family="'Helvetica-ExtraCompressed'" font-size="105.6633" letter-spacing="9">WORK</text>
</svg>
